<svg version="1.2" xmlns="http://www.w3.org/2000/svg" viewBox="0 0 388 431" width="388" height="431">
	<title>play-button-svg</title>
	<style>
		.s0 { fill: #2f2e41 } 
	</style>
	<g id="Background">
		<path id="Path 0" fill-rule="evenodd" class="s0" d="m24.3 0c5.7 0 6 0.2 54 27.5c31.2 17.8 49.5 28.9 51.8 31.3c2 2 4.1 5.5 4.7 7.7c0.7 2.2 1.2 5.1 1.2 6.5c0 1.4-0.6 4.2-1.3 6.4c-0.6 2.1-2.5 5.4-4.2 7.4c-1.6 1.9-4.7 4.3-6.7 5.3c-2.3 1.1-5.9 1.9-9 1.9c-3.5 0-7-0.8-10.3-2.4c-2.7-1.3-16.9-9.2-31.5-17.5c-14.6-8.3-26.7-14.9-27-14.5c-0.3 0.3-0.8 64.1-1.2 141.7c-0.5 77.7-0.7 148-0.3 171.6l12-6.8c6.6-3.7 69-38.5 138.8-77.4c69.7-38.9 126.7-71 126.7-71.4c0.1-0.5-16-10-35.7-21.3c-19.6-11.3-36.9-21.4-38.3-22.6c-1.4-1.1-3.6-4.3-4.9-7c-1.9-3.9-2.3-6.1-2-10.6c0.3-4.2 1.1-6.7 3.4-10c1.7-2.3 5.1-5.4 7.5-6.8c3.4-1.9 6-2.5 16.6-2.5l55.5 31.7c30.4 17.4 56.6 32.9 58 34.5c1.5 1.5 3.4 4.3 4.3 6.1c0.9 1.7 1.6 5.6 1.6 8.5c0 3.4-0.8 6.7-2.3 9.6c-1.2 2.5-3.6 5.5-5.2 6.7c-1.6 1.2-80.8 45.7-176 98.8c-95.2 53.2-174.6 97.2-176.5 97.8c-1.9 0.6-5.5 0.9-8 0.6c-2.5-0.3-6.3-1.3-8.4-2.4c-2.2-1-5.1-3.5-6.5-5.4c-1.4-1.9-3.1-5-3.8-7c-0.9-2.6-1-27.7-0.6-101.5c0.3-53.9 0.8-143.2 1.8-299l2.5-4.3c1.4-2.4 4.1-5.4 6-6.6c1.9-1.3 4.4-2.9 5.5-3.5c1.1-0.5 4.6-1.1 7.7-1.1zm156.7 88c2 0.3 10.3 4.4 18.5 9c12.8 7.3 15.3 9.1 17.8 13c1.5 2.5 3.1 6.3 3.4 8.5c0.3 2.2 0.1 5.8-0.5 8c-0.5 2.2-2.1 5.6-3.3 7.5c-1.3 1.9-4.6 4.7-7.3 6.2c-3 1.7-6.6 2.8-9 2.8c-2.2 0-5.6-0.5-7.5-1.2c-1.9-0.6-8.9-4.3-15.5-8.1c-6.6-3.8-13.3-8.1-14.9-9.5c-1.6-1.5-3.7-4.5-4.7-6.7c-1-2.2-1.9-6-1.9-8.5q0-4.5 2.7-9.9c1.7-3.3 4.2-6.4 6.3-7.8c1.9-1.2 5.5-2.6 7.9-3.1c2.4-0.4 6-0.5 8-0.2z" />
	</g>
</svg>